<svg height="512pt" viewBox="0 0 512.06823 512" width="512pt" xmlns="http://www.w3.org/2000/svg" xmlns:xlink="http://www.w3.org/1999/xlink"><linearGradient id="a" gradientTransform="matrix(401.066406 0 0 221.78125 42.734375 247.585938)" gradientUnits="userSpaceOnUse" x1=".175426" x2=".825745" y1="-.071181" y2="1.104847"><stop offset="0" stop-color="#d3dff2"/><stop offset=".172" stop-color="#d3dff2"/><stop offset=".2" stop-color="#d3dff2"/><stop offset=".2" stop-color="#dae2f2"/><stop offset=".201" stop-color="#ebeaf2"/><stop offset=".201" stop-color="#f6eff2"/><stop offset=".202" stop-color="#fdf2f2"/><stop offset=".205" stop-color="#fff3f2"/><stop offset=".252" stop-color="#fff3f2"/><stop offset=".26" stop-color="#fff3f2"/><stop offset=".26" stop-color="#d3dff2"/><stop offset=".397" stop-color="#d3dff2"/><stop offset=".42" stop-color="#d3dff2"/><stop offset=".42" stop-color="#dae2f2"/><stop offset=".421" stop-color="#ebeaf2"/><stop offset=".421" stop-color="#f6eff2"/><stop offset=".422" stop-color="#fdf2f2"/><stop offset=".425" stop-color="#fff3f2"/><stop offset=".489" stop-color="#fff3f2"/><stop offset=".5" stop-color="#fff3f2"/><stop offset=".5" stop-color="#f8f0f2"/><stop offset=".5" stop-color="#e7e8f2"/><stop offset=".5" stop-color="#dce3f2"/><stop offset=".5" stop-color="#d5e0f2"/><stop offset=".501" stop-color="#d3dff2"/><stop offset=".706" stop-color="#d3dff2"/><stop offset=".74" stop-color="#d3dff2"/><stop offset=".741" stop-color="#fff3f2"/><stop offset=".835" stop-color="#fff3f2"/><stop offset=".85" stop-color="#fff3f2"/><stop offset=".851" stop-color="#d3dff2"/></linearGradient><path d="m503.535156 349.902344c0 119.464844-59.734375 153.597656-102.398437 153.597656-4.234375.019531-8.457031-.324219-12.632813-1.023438 40.875-6.484374 89.429688-44.800781 89.429688-152.574218 0-115.714844-72.105469-135.339844-231.765625-136.449219 3.246093-.085937 6.570312-.085937 9.898437-.085937 170.667969 0 247.46875 17.066406 247.46875 136.535156zm0 0" fill="#7fabfa"/><path d="m477.933594 349.902344c0 107.773437-48.554688 146.089844-89.429688 152.574218-57-9.726562-68.605468-84.308593-132.4375-84.308593-4.289062-.035157-8.574218.335937-12.796875 1.109375-56.832031 9.8125-68.523437 84.222656-132.269531 84.222656-4.339844-.011719-8.679688-.351562-12.96875-1.023438-40.875-6.484374-89.429688-44.800781-89.429688-152.574218 0-115.714844 72.105469-135.339844 231.765626-136.449219 1.960937-.085937 3.925781-.085937 5.800781 0 159.660156 1.109375 231.765625 20.734375 231.765625 136.449219zm0 0" fill="#a4c2f7"/><path d="m469.402344 349.902344c0 88.0625-35.242188 119.464844-68.265625 119.464844-4.035157.058593-8.046875-.578126-11.863281-1.878907 28.332031-7.847656 54.527343-41.640625 54.527343-117.585937 0-77.738282-26.878906-101.464844-202.324219-102.316406 4.777344-.085938 9.640626-.085938 14.589844-.085938 185.347656 0 213.335938 23.039062 213.335938 102.402344zm0 0" fill="#a4c2f7"/><path d="m443.800781 349.902344c0 75.945312-26.195312 109.738281-54.527343 117.585937-11.691407-3.839843-21.164063-13.820312-35.328126-29.523437-20.480468-22.699219-48.554687-53.929688-97.878906-53.929688-4.273437.003906-8.546875.230469-12.796875.679688-41.472656 4.867187-66.476562 32.597656-85.078125 53.25-18.601562 20.652344-29.097656 31.402344-47.191406 31.402344-4.644531.011718-9.265625-.621094-13.738281-1.878907-28.328125-7.847656-54.527344-41.640625-54.527344-117.585937 0-86.359375 45.226563-101.546875 198.742187-102.316406 175.445313.851562 202.324219 24.578124 202.324219 102.316406zm0 0" fill="url(#a)"/><path d="m307.269531 59.765625c0 28.277344-22.925781 51.203125-51.203125 51.203125-4.316406-.015625-8.613281-.558594-12.796875-1.621094-22.605469-5.816406-38.40625-26.195312-38.40625-49.539062 0-23.339844 15.800781-43.71875 38.40625-49.535156 4.171875-1.132813 8.476563-1.707032 12.796875-1.707032 28.277344 0 51.203125 22.925782 51.203125 51.199219zm0 0" fill="#a4c2f7"/><path d="m281.667969 59.765625c-.054688 23.332031-15.824219 43.691406-38.398438 49.582031-22.605469-5.816406-38.40625-26.195312-38.40625-49.539062 0-23.339844 15.800781-43.71875 38.40625-49.535156 22.574219 5.828124 38.363281 26.175781 38.398438 49.492187zm0 0" fill="#e3e7f2"/><path d="m230.46875 213.367188c4.351562 0 8.617188 0 12.800781.085937-24.832031.085937-47.53125.683594-68.269531 1.960937-23.359375 1.113282-46.59375 4.140626-69.460938 9.046876-17.648437 3.613281-34.554687 10.191406-50.003906 19.457031-.855468-3.753907-1.535156-7.597657-2.132812-11.519531 8.640625-3.285157 17.511718-5.9375 26.539062-7.9375 22.867188-4.90625 46.097656-7.933594 69.460938-9.046876 24.234375-1.535156 51.199218-2.046874 81.066406-2.046874zm0 0" fill="#a4c2f7"/><path d="m460.867188 204.835938c.003906 13.140624-1.429688 26.246093-4.265626 39.082031-7.40625-4.632813-15.269531-8.492188-23.464843-11.519531 1.425781-9.121094 2.140625-18.335938 2.132812-27.5625 0-89.089844-61.699219-125.953126-128.429687-138.925782.171875-1.277344.257812-2.558594.34375-3.839844 75.519531 8.363282 153.683594 42.496094 153.683594 142.765626zm0 0" fill="#a4c2f7"/><path d="m435.269531 204.835938c.007813 9.226562-.707031 18.441406-2.132812 27.5625-8.644531-3.285157-17.515625-5.9375-26.539063-7.9375-22.871094-4.90625-46.101562-7.933594-69.460937-9.046876-24.238281-1.535156-51.203125-2.046874-81.070313-2.046874-4.351562 0-8.617187 0-12.796875.085937-4.183593-.085937-8.449219-.085937-12.800781-.085937-29.867188 0-56.832031.511718-81.066406 2.046874-23.363282 1.113282-46.59375 4.140626-69.460938 9.046876-9.027344 2-17.898437 4.652343-26.539062 7.9375-1.429688-9.121094-2.140625-18.335938-2.132813-27.5625 0-89.089844 61.695313-125.953126 128.425781-138.925782 8.363282-1.621094 16.808594-2.898437 25.257813-3.839844 1.027344 22.453126 16.5625 41.621094 38.316406 47.277344 4.183594 1.0625 8.480469 1.605469 12.796875 1.621094 17.566406-.015625 33.898438-9.035156 43.265625-23.894531 4.015625-6.421875 6.578125-13.644531 7.507813-21.164063 66.730468 12.972656 128.429687 49.835938 128.429687 138.925782zm0 0" fill="#e3e7f2"/><path d="m433.136719 232.398438c-.597657 3.921874-1.28125 7.765624-2.136719 11.519531-15.445312-9.265625-32.355469-15.84375-50.003906-19.457031-22.867188-4.90625-46.097656-7.933594-69.460938-9.046876-20.734375-1.277343-43.433594-1.875-68.265625-1.960937 4.179688-.085937 8.445313-.085937 12.796875-.085937 29.867188 0 56.832032.511718 81.070313 2.046874 23.359375 1.113282 46.589843 4.140626 69.460937 9.046876 9.023438 2 17.894532 4.652343 26.539063 7.9375zm0 0" fill="#a4c2f7"/><path d="m242.714844 213.785156c3.410156-.066406 6.773437-.144531 10.238281-.1875-3.472656.042969-6.851563.121094-10.238281.1875zm0 0" fill="#fff"/><path d="m227.328125 214.222656c2.960937-.105468 5.921875-.199218 8.960937-.273437-3.03125.050781-6 .144531-8.960937.273437zm0 0" fill="#fff"/><path d="m212.957031 214.765625 7.816407-.339844zm0 0" fill="#fff"/><path d="m205.660156 215.152344c-1.703125.09375-3.410156.160156-5.058594.261718-.570312 0-1.082031.085938-1.648437.128907 2.203125-.144531 4.464844-.265625 6.707031-.390625zm0 0" fill="#fff"/><path d="m162.414062 218.964844c1.496094-.195313 3.054688-.359375 4.574219-.539063-1.519531.191407-3.078125.34375-4.574219.539063zm0 0" fill="#fff"/><path d="m144.84375 221.695312 3.953125-.683593zm0 0" fill="#fff"/><path d="m177.9375 217.242188c1.945312-.195313 3.882812-.382813 5.878906-.5625-1.988281.179687-3.933594.375-5.878906.5625zm0 0" fill="#fff"/><path d="m116.0625 228.480469 2.148438-.632813zm0 0" fill="#fff"/><path d="m103.320312 232.882812c.273438-.101562.53125-.222656.8125-.324218-.300781.101562-.554687.222656-.8125.324218zm0 0" fill="#fff"/><path d="m91.792969 237.953125.453125-.214844zm0 0" fill="#fff"/><path d="m98.03125 502.476562c4.289062.671876 8.628906 1.011719 12.96875 1.023438 4.15625-.011719 8.300781-.371094 12.390625-1.074219-40.832031-6.605469-89.1875-44.960937-89.1875-152.523437 0-53.234375 15.308594-86.09375 47.332031-106.207032l-.398437.222657c-.855469-3.753907-1.539063-7.597657-2.136719-11.519531-1.425781-9.121094-2.140625-18.335938-2.132812-27.5625 0-89.089844 61.695312-125.953126 128.425781-138.925782h.097656c-.164063-1.269531-.378906-2.558594-.4375-3.820312-8.449219.9375-16.894531 2.21875-25.257813 3.839844-66.730468 12.953124-128.425781 49.816406-128.425781 138.90625-.007812 9.226562.703125 18.441406 2.132813 27.5625.597656 3.921874 1.277344 7.765624 2.132812 11.519531l.402344-.222657c-32.027344 20.113282-47.335938 52.972657-47.335938 106.207032 0 107.773437 48.554688 146.089844 89.429688 152.574218zm-31.402344-264.738281-.453125.214844zm11.871094-5.179687c-.285156.101562-.539062.222656-.8125.324218.289062-.101562.546875-.222656.828125-.324218zm0 0" fill="#fff"/><path d="m111 512.035156c-20.464844-.261718-40.324219-6.984375-56.746094-19.199218-15.757812-12.320313-28.21875-28.351563-36.265625-46.660157-12.609375-30.496093-18.710937-63.285156-17.9218748-96.273437h17.0703128c-.777344 30.53125 4.796875 60.890625 16.363281 89.15625 6.855469 15.714844 17.488281 29.492187 30.953125 40.105468 13.472656 10.019532 29.757813 15.546876 46.546875 15.804688zm0 0" fill="#fff"/><g fill="#428dff"><path d="m70.144531 492.84375c-1.078125 2.09375-1.226562 4.546875-.402343 6.757812.820312 2.210938 2.535156 3.972657 4.71875 4.855469 11.546874 4.957031 23.976562 7.535157 36.539062 7.578125v-17.066406c-10.273438-.039062-20.429688-2.15625-29.863281-6.222656-4.175781-1.644532-8.914063.121094-10.992188 4.097656zm0 0"/><path d="m17.136719 349.902344h-17.0703128c-.7890622 32.988281 5.3124998 65.777344 17.9218748 96.273437l3.917969 8.164063c1.101562 2.070312 3.003906 3.59375 5.261719 4.21875 2.261719.621094 4.675781.289062 6.683593-.925782 3.871094-2.367187 5.246094-7.328124 3.140626-11.347656l-3.414063-7.226562c-11.59375-28.261719-17.195313-58.621094-16.441406-89.15625zm0 0"/><path d="m43.734375 483.703125c1.675781 1.753906 4.035156 2.6875 6.457031 2.558594l1.707032-.28125c.566406-.144531 1.109374-.367188 1.613281-.664063.5-.210937.964843-.5 1.375-.851562.4375-.375.84375-.777344 1.21875-1.214844 1.375-1.753906 2.097656-3.929688 2.050781-6.160156-.390625-4.285156-3.847656-7.652344-8.140625-7.925782-1.125.03125-2.234375.246094-3.289063.636719-1.058593.363281-2.046874.917969-2.90625 1.640625-1.703124 1.476563-2.707031 3.601563-2.773437 5.851563.074219 2.394531 1.03125 4.679687 2.6875 6.410156zm0 0"/><path d="m401.136719 512.035156c-37.933594 0-59.683594-24.167968-78.875-45.492187-18.40625-20.488281-35.859375-39.84375-66.195313-39.84375-30.335937 0-47.785156 19.355469-66.191406 39.84375-19.191406 21.324219-40.941406 45.492187-78.875 45.492187-4.710938 0-8.53125-3.820312-8.53125-8.535156 0-4.710938 3.820312-8.53125 8.53125-8.53125 30.335938 0 47.789062-19.355469 66.195312-39.84375 19.191407-21.324219 40.941407-45.492188 78.871094-45.492188 37.933594 0 59.683594 24.167969 78.875 45.492188 18.40625 20.488281 35.859375 39.84375 66.195313 39.84375 69.28125 0 93.863281-78.148438 93.863281-145.066406 0-108.664063-62.609375-128-238.933594-128-176.324218 0-238.929687 19.335937-238.929687 128 0 4.710937-3.824219 8.53125-8.535157 8.53125-4.710937 0-8.5351558-3.820313-8.5351558-8.53125 0-134.972656 101.3593748-145.066406 255.9999998-145.066406 154.644532 0 256 10.09375 256 145.066406 0 119.667968-59.730468 162.132812-110.929687 162.132812zm0 0"/><path d="m401.136719 477.902344c-22.734375 0-35.644531-14.347656-53.503907-34.195313-20.507812-22.785156-46.03125-51.140625-91.566406-51.140625-45.53125 0-71.054687 28.355469-91.5625 51.140625-17.859375 19.847657-30.769531 34.195313-53.503906 34.195313-37.128906 0-76.796875-33.621094-76.796875-128 0-100.898438 64.203125-110.933594 221.863281-110.933594 180.40625 0 221.867188 20.734375 221.867188 110.933594 0 94.378906-39.671875 128-76.796875 128zm-145.070313-102.402344c53.140625 0 83.894532 34.175781 104.253906 56.789062 18.628907 20.71875 26.992188 28.546876 40.816407 28.546876 28.875 0 59.730469-29.144532 59.730469-110.933594 0-69.53125-16.777344-93.867188-204.800782-93.867188-170.347656 0-204.796875 15.792969-204.796875 93.867188 0 81.789062 30.855469 110.933594 59.730469 110.933594 13.824219 0 22.1875-7.828126 40.816406-28.546876 20.359375-22.613281 51.113282-56.789062 104.25-56.789062zm0 0"/><path d="m76.867188 358.433594c-3.074219-.003906-5.90625-1.660156-7.417969-4.335938-1.511719-2.675781-1.46875-5.957031.113281-8.589844l25.601562-42.667968c1.539063-2.671875 4.40625-4.304688 7.488282-4.269532 3.085937.035157 5.914062 1.734376 7.390625 4.441407 1.480469 2.707031 1.382812 6-.253907 8.617187l-25.597656 42.667969c-1.546875 2.570313-4.324218 4.140625-7.324218 4.136719zm0 0"/><path d="m153.667969 384.035156c-3.074219-.003906-5.90625-1.660156-7.417969-4.335937s-1.46875-5.957031.113281-8.59375l25.601563-42.667969c1.539062-2.671875 4.402344-4.304688 7.488281-4.269531 3.085937.035156 5.910156 1.734375 7.390625 4.441406s1.382812 6.003906-.253906 8.621094l-25.601563 42.664062c-1.542969 2.570313-4.320312 4.140625-7.320312 4.140625zm0 0"/><path d="m85.402344 418.167969c-3.074219-.003907-5.90625-1.660157-7.421875-4.335938-1.511719-2.675781-1.464844-5.957031.117187-8.59375l71.59375-119.335937c2.425782-4.042969 7.667969-5.351563 11.707032-2.929688 4.042968 2.425782 5.351562 7.667969 2.929687 11.707032l-71.613281 119.347656c-1.542969 2.570312-4.316406 4.140625-7.3125 4.140625zm0 0"/><path d="m372.179688 358.433594c-3.070313-.003906-5.90625-1.660156-7.417969-4.335938-1.511719-2.675781-1.46875-5.957031.113281-8.589844l25.601562-42.667968c1.570313-2.613282 4.414063-4.191406 7.464844-4.140625 3.050782.054687 5.839844 1.726562 7.316406 4.394531 1.480469 2.667969 1.421876 5.921875-.144531 8.535156l-25.601562 42.667969c-1.546875 2.570313-4.328125 4.144531-7.332031 4.136719zm0 0"/><path d="m390.964844 401.101562c-3.078125 0-5.914063-1.65625-7.425782-4.332031-1.515624-2.675781-1.472656-5.960937.109376-8.597656l40.960937-68.265625c2.429687-4.042969 7.671875-5.351562 11.710937-2.921875 4.042969 2.425781 5.351563 7.667969 2.925782 11.710937l-40.960938 68.265626c-1.542968 2.570312-4.324218 4.140624-7.320312 4.140624zm0 0"/><path d="m256.066406 119.5c-32.988281 0-59.730468-26.742188-59.730468-59.734375 0-32.988281 26.742187-59.7304688 59.730468-59.7304688 32.992188 0 59.734375 26.7421878 59.734375 59.7304688-.035156 32.976563-26.757812 59.699219-59.734375 59.734375zm0-102.398438c-23.5625 0-42.664062 19.101563-42.664062 42.664063 0 23.566406 19.101562 42.667969 42.664062 42.667969 23.566406 0 42.667969-19.101563 42.667969-42.667969-.027344-23.550781-19.113281-42.636719-42.667969-42.664063zm0 0"/><path d="m456.601562 252.414062c-1.617187.003907-3.199218-.457031-4.566406-1.320312-38.398437-24.3125-103.449218-29.191406-195.96875-29.191406-92.515625 0-157.566406 4.878906-195.933594 29.191406-2.339843 1.484375-5.253906 1.742188-7.816406.6875-2.566406-1.050781-4.457031-3.285156-5.074218-5.988281-3.015626-13.441407-4.527344-27.179688-4.507813-40.957031 0-86.007813 57.285156-139.734376 161.28125-151.273438 2.347656-.261719 4.699219.460938 6.496094 2 1.792969 1.535156 2.871093 3.746094 2.976562 6.109375 1.019531 22.761719 19.769531 40.691406 42.554688 40.691406 22.785156 0 41.535156-17.929687 42.554687-40.691406.105469-2.363281 1.183594-4.574219 2.976563-6.109375 1.796875-1.539062 4.148437-2.261719 6.496093-2 104.046876 11.539062 161.332032 65.265625 161.332032 151.273438.019531 13.777343-1.492188 27.515624-4.507813 40.957031-.878906 3.890625-4.339843 6.652343-8.328125 6.648437zm-200.535156-47.578124c87.792969 0 152.015625 4.496093 194.332032 25.777343 1.296874-8.53125 1.941406-17.148437 1.9375-25.777343 0-52.609376-24.167969-117.761719-137.761719-133.277344-5.601563 27.871094-30.082031 47.921875-58.507813 47.921875-28.425781 0-52.902344-20.050781-58.503906-47.921875-64.757812 8.917968-137.761719 39.722656-137.761719 133.277344-.003906 8.628906.640625 17.246093 1.9375 25.777343 42.316407-21.28125 106.539063-25.777343 194.328125-25.777343zm0 0"/><path d="m256.066406 221.902344c-4.710937 0-8.53125-3.820313-8.53125-8.535156v-102.398438c0-4.714844 3.820313-8.535156 8.53125-8.535156 4.714844 0 8.535156 3.820312 8.535156 8.535156v102.398438c0 4.714843-3.820312 8.535156-8.535156 8.535156zm0 0"/><path d="m337.136719 223.941406c-4.570313.003906-8.335938-3.59375-8.535157-8.160156-1.988281-45.175781-19.832031-82.832031-50.246093-106.042969-3.578125-2.910156-4.199219-8.132812-1.398438-11.800781 2.796875-3.664062 8.003907-4.445312 11.75-1.757812 34.527344 26.324218 54.742188 68.546874 56.960938 118.894531.207031 4.707031-3.441407 8.691406-8.148438 8.898437zm0 0"/><path d="m175 223.941406h-.382812c-4.695313-.207031-8.335938-4.171875-8.148438-8.867187 2.21875-50.347657 22.433594-92.527344 56.941406-118.851563 3.75-2.6875 8.953125-1.90625 11.753906 1.757813 2.796876 3.667969 2.175782 8.890625-1.402343 11.800781-30.414063 23.210938-48.253907 60.867188-50.242188 106.042969-.222656 4.542969-3.96875 8.113281-8.519531 8.117187zm0 0"/><path d="m406.628906 232.992188c-.390625 0-.785156-.023438-1.175781-.074219-4.667969-.644531-7.929687-4.949219-7.289063-9.617188 8.800782-63.863281-28.839843-111.667969-100.691406-127.898437-2.976562-.683594-5.359375-2.898438-6.253906-5.816406-.894531-2.917969-.167969-6.089844 1.910156-8.324219s5.191406-3.191407 8.164063-2.507813c80.214843 18.117188 123.804687 74.394532 113.820312 146.867188-.582031 4.234375-4.207031 7.386718-8.484375 7.371094zm0 0"/><path d="m105.507812 232.992188c-4.261718-.003907-7.863281-3.152344-8.441406-7.371094-9.957031-72.472656 33.628906-128.75 113.816406-146.867188 2.976563-.671875 6.082032.292969 8.152344 2.53125 2.066406 2.242188 2.785156 5.414063 1.878906 8.324219-.902343 2.914063-3.292968 5.121094-6.265624 5.792969-71.835938 16.214844-109.476563 64-100.695313 127.898437.644531 4.667969-2.617187 8.972657-7.285156 9.617188-.386719.050781-.773438.074219-1.160157.074219zm0 0"/></g></svg>